<?xml version="1.0" encoding="utf-8"?>
<!-- Generator: Adobe Illustrator 25.3.1, SVG Export Plug-In . SVG Version: 6.00 Build 0)  -->
<svg version="1.1" id="Capa_1" xmlns="http://www.w3.org/2000/svg" xmlns:xlink="http://www.w3.org/1999/xlink" x="0px" y="0px"
	  width="164.184px" height="38.903px" viewBox="0 0 164.2 38.9" style="enable-background:new 0 0 164.2 38.9;" enable-background="new 0 0 164.184 38.903" xml:space="preserve">


	 	 
<style type="text/css">
	.st0{fill:#FFFFFF;}
	.st1{fill:#E40521;}
</style>
<g>
	<g>
		<path class="st0" d="M123.1,24.1c0.3-0.4,0.1-0.9-0.2-1.2c-0.1-0.1-0.6-0.1-0.7,0c-1,1.6-2.5,3-2.3,5.5
			C121.7,27.2,122.2,25.5,123.1,24.1z"/>
		<path class="st0" d="M100.2,34.6c-0.5,0.5-1.1,1-1.6,1.4c-1,0.8-2.2,1.3-3.5,0.7c-1.3-0.7-0.9-2-0.7-3.2c0.1-0.9,0.4-1.8,0.7-2.6
			c0.3-0.8,0.6-1.6-0.4-2.1c-1.2-0.6-1.6,0.5-2,1.2c-0.5,0.9-0.8,1.8-1.2,2.7c-1,0.8-1,2.5-2.5,3.1c-0.5-1.5,0.6-2.8,0.4-4.3
			c-0.1-0.7,0-1.5-0.8-1.9c-0.8-0.3-1.4,0.2-1.8,0.9c-0.8,1.2-1.6,2.4-2.4,3.6l0,0c-1.5,1.1-2.6,2.8-4.8,2.9c-0.6,0-1.5,0-1.8-0.3
			c-0.5-0.6,0.3-1.1,0.7-1.6c1.1-1.4,2-2.8,2.7-4.4c0.6-1.4,1.2-2.9-0.5-3.8c-1.6-0.9-2.5,0.5-3.4,1.5c-0.3,0.3-0.5,0.7-0.7,1.1
			c-2.1,3.5-1.9,7.3,0.3,8.6c2.5,1.5,5.6,0.3,8.1-3.4c0.8-1,1.6-2,2.6-3.1c0.3,1.5-0.4,2.7-0.4,4c0,0.8-0.2,1.8,0.7,2.2
			c1,0.4,1.7-0.3,2.3-1c0.8-1,1.5-2.1,1.8-3.3c0.1-0.1,0.4-0.2,0.4-0.2c0.1,0.2,0.3,0.4,0.3,0.7c-0.1,1.7-0.2,3.5,1.9,4.2
			c2,0.7,3.7-0.2,5.1-1.6c0.5-0.4,0.8-0.9,1.2-1.4c1-0.9,2-1.8,1.7-4.1C101.6,32.7,100.9,33.7,100.2,34.6z M80.1,27.9
			c0,3-1.3,4.9-3,6.5C77.1,32,77.8,29.9,80.1,27.9z"/>
		<path class="st0" d="M164,31.7c-1,0.8-1.5,1.5-2,2.4c-0.9,0.8-1.7,1.6-2.6,2.3c-0.8,0.6-1.8,0.9-2.7,0.3c-0.9-0.6-0.7-1.6-0.6-2.4
			c0.1-1,0.8-1.8,0.5-2.9c-1.2-0.4-1.5,0.4-1.9,1.3c-0.6,1.3-1.2,2.7-2.2,3.7c-0.4,0.5-0.9,1-1.6,0.7c-0.6-0.3-0.8-1-0.7-1.7
			c0.1-1.7,0.6-3.2,1.5-4.6c1.6-2.4,2.5-2.4,4.1,0c0.1,0.1,0.5-0.1,0.8-0.1c0.2-1.1,0.6-2.3-0.6-2.9c-1.2-0.7-2.5-0.3-3.6,0.5
			c-1.4,1-2.3,2.5-3.2,4c-1.4,2.4-3.1,4.5-6.2,4.8c-0.5,0-1.2-0.1-1.5-0.4c-0.4-0.5,0.3-1,0.6-1.3c1.3-1.5,2.3-3.3,3-5.1
			c0.4-1.1,0.7-2.4-0.5-3.2c-1.4-0.9-2.4,0.1-3.2,1c-1.7,2.1-2.7,4.5-2.4,7.3c0.2,1.3-0.6,1.6-1.6,1.7c-1,0.1-1.9-0.1-2.1-1.2
			c-0.1-0.9,0.1-1.8,0-2.7c0-1.4,2.1-3.5-0.2-4.2c-1.7-0.5-1.9,2.1-2.7,3.5l0,0l0,0c-1.1,0.9-1.1,2.6-2.6,3.4
			c-0.3-1.2,0.1-2.2,0.3-3.2c0.2-1.1,0.4-2.3-0.8-2.9c-1.1-0.5-1.6,0.8-2.3,1.5c-0.3,0.3-0.4,0.8-0.6,1.2c-1.1,1.3-2.2,2.6-3.3,3.9
			l0,0c-1.2,0.4-2.3,1.8-3.7,0.6c-1.3-1-0.7-2.5-0.6-3.8c0-0.3,0.1-0.5,0.1-0.8c0.1-0.7,1.1-1.7-0.1-2.1c-1.3-0.4-1.3,0.9-1.6,1.7
			c-1,2.6-2.9,4.4-5.4,5.4c-1.4,0.5-2.7,0.1-3.7-1c-1.1-1.2,0.4-1.7,0.7-2.5c0.4-0.8,1-1.5,1.5-2.2c2.9-4.3,5.2-9,5.5-14.3
			c0.1-1.3,0.1-2.8-1.6-3.4c-1.4-0.5-2.5,0.3-3.3,1.3c-4.5,5.9-6.4,12.6-5.3,19.9c0.5,3.2,3,4.4,6.1,3.7c2-0.5,3.2-1.9,4.7-3
			c2.2,3.9,4.1,4.2,7.4,1.4c0,0,0,0,0,0c0,0,0,0,0,0c1.4-0.6,1.6-2.3,2.7-3.2c0.9-0.3,0.9-1.7,2.1-2c-0.2,1.4-0.4,2.7-0.6,4.1
			c-0.1,0.8-0.2,1.7,0.8,2.1c1,0.3,1.8-0.3,2.2-1.1c0.7-1.2,1.4-2.5,2.1-3.7c0.7,0.3,0.4,0.9,0.4,1.4c0.1,3.7,1.3,4.6,4.9,3.6
			c0.4-0.1,1-0.4,1.3-0.2c3.4,2.1,6,0.4,8.4-2c1.6,4,2.5,4,6,0.6c2.3,2.7,3.9,2.9,6.5,0.6c0.7-0.6,1.3-1.5,2-2.2
			C163.5,34,164.3,33.3,164,31.7z M111.3,16.9c0.5-0.7,1.1-1.7,2.1-1.3c1.1,0.5,0.8,1.7,0.7,2.6c-1,5.7-3.3,10.8-7.2,16
			C106.3,27.4,108.1,21.9,111.3,16.9z M142.4,29c0.2-0.4,0.5-0.8,1.1-0.6c0.5,0.2,0.4,0.7,0.3,1.2c-0.6,1.9-1.5,3.6-3.3,5.3
			C140.4,32.4,141.3,30.7,142.4,29z"/>
	</g>
</g>
<g>
	<g>
		<path class="st0" d="M5,29.1c0.2-0.7,0.9-1.1,1.5-0.8c2.2,0.9,5.3,1.7,8.4,1.7c3.4,0,5.1-1.2,5.1-3c0-1.8-1.7-2.8-5.9-4.2
			C7.9,20.5,3.7,17.1,3.7,11.6C3.7,5,9.2,0,18.6,0c3.9,0,6.8,0.6,9.1,1.5c0.5,0.2,0.8,0.8,0.7,1.3l-1.5,5.7c-0.2,0.7-0.9,1-1.5,0.8
			c-1.6-0.6-4-1.3-6.9-1.3c-3,0-4.7,1.1-4.7,2.7c0,1.9,2,2.6,6.6,4.4c6.7,2.4,9.7,6,9.7,11.2c0,6.4-5,11.8-15.8,11.8
			c-3.9,0-7.7-0.9-10-1.9c-0.5-0.2-0.8-0.8-0.7-1.3L5,29.1z"/>
		<path class="st0" d="M31.8,1.8c0-0.4,0.3-0.7,0.7-0.8c2.8-0.4,6.7-0.7,11.3-0.7c5.7,0,9.7,0.8,12.5,2.9c2.4,1.8,3.7,4.5,3.7,8.1
			c0,4.6-3.5,7.9-6.3,9v0.2c2.5,1.1,3.8,3.4,4.7,6.6c0.9,3.1,1.9,7.4,2.7,9.6c0.2,0.5-0.2,1-0.7,1h-8.5c-0.3,0-0.6-0.2-0.7-0.5
			c-0.6-1.3-1.4-4.1-2.4-8.1c-1-4.4-2.4-5.4-5.4-5.4h-1.6v13.1c0,0.4-0.3,0.8-0.8,0.8h-8.3c-0.4,0-0.8-0.3-0.8-0.8V1.8z M41.6,16.6
			h2.6c3.7,0,5.9-1.8,5.9-4.6S48.2,7.7,45,7.6c-1.9,0-2.9,0.1-3.4,0.2V16.6z"/>
		<path class="st0" d="M63.5,9.8c-0.6,0.2-0.8,0.4-0.8,0.7l0,9.5l0,16.9c0,0.3,0.4,0.6,0.8,0.6h8.3c0.5,0,0.8-0.3,0.8-0.6V7.9
			c0-0.4-0.5-1.6-1.9-0.9L63.5,9.8z"/>
		<path class="st1" d="M62.7,1.5v5.1c0,0.8,0.8,1.4,1.6,1.1l7.9-3.1c0.5-0.2,0.5-0.9,0-1.1l-7.9-3.1C63.6,0.1,62.7,0.7,62.7,1.5z"/>
	</g>
</g>
</svg>
